<svg width="401" height="401" viewBox="0 0 401 401" fill="none" xmlns="http://www.w3.org/2000/svg">
<path d="M96.3333 304.667L13 388M221.333 13C177.131 13 134.738 30.5595 103.482 61.8155C72.2261 93.0716 54.6667 135.464 54.6667 179.667C54.6667 223.869 72.2261 266.262 103.482 297.518C134.738 328.774 177.131 346.333 221.333 346.333C265.536 346.333 307.928 328.774 339.184 297.518C370.441 266.262 388 223.869 388 179.667C388 135.464 370.441 93.0716 339.184 61.8155C307.928 30.5595 265.536 13 221.333 13Z" stroke="#160E37" stroke-width="25" stroke-linecap="round" stroke-linejoin="round"/>
<path d="M241.5 79.5C249.456 79.5 257.087 82.6607 262.713 88.2868C268.339 93.9129 271.5 101.544 271.5 109.5H301.5C306.804 109.5 311.891 111.607 315.642 115.358C319.393 119.109 321.5 124.196 321.5 129.5V239.5C321.5 244.804 319.393 249.891 315.642 253.642C311.891 257.393 306.804 259.5 301.5 259.5H141.5C136.196 259.5 131.109 257.393 127.358 253.642C123.607 249.891 121.5 244.804 121.5 239.5V129.5C121.5 124.196 123.607 119.109 127.358 115.358C131.109 111.607 136.196 109.5 141.5 109.5H171.5C171.5 101.544 174.661 93.9129 180.287 88.2868C185.913 82.6607 193.544 79.5 201.5 79.5H241.5ZM291.5 149.5H151.5C148.951 149.503 146.5 150.479 144.646 152.228C142.793 153.978 141.678 156.37 141.528 158.914C141.379 161.458 142.207 163.964 143.843 165.918C145.479 167.873 147.799 169.129 150.33 169.43L151.5 169.5H211.5V179.5C211.503 182.049 212.479 184.5 214.228 186.354C215.978 188.207 218.37 189.322 220.914 189.472C223.458 189.621 225.964 188.793 227.918 187.157C229.873 185.521 231.129 183.201 231.43 180.67L231.5 179.5V169.5H291.5C294.049 169.497 296.5 168.521 298.354 166.772C300.207 165.022 301.322 162.63 301.472 160.086C301.621 157.542 300.793 155.036 299.157 153.082C297.521 151.127 295.201 149.871 292.67 149.57L291.5 149.5ZM241.5 99.5H201.5C199.051 99.5003 196.687 100.4 194.856 102.027C193.026 103.655 191.857 105.897 191.57 108.33L191.5 109.5H251.5C251.5 107.051 250.6 104.687 248.973 102.856C247.345 101.026 245.103 99.8566 242.67 99.57L241.5 99.5Z" fill="#160E37"/>
</svg>
